<?xml version="1.0" encoding="utf-8"?>
<!-- Generator: Adobe Illustrator 16.0.0, SVG Export Plug-In . SVG Version: 6.00 Build 0)  -->
<!DOCTYPE svg PUBLIC "-//W3C//DTD SVG 1.1//EN" "http://www.w3.org/Graphics/SVG/1.1/DTD/svg11.dtd">
<svg version="1.1" id="Layer_1" xmlns="http://www.w3.org/2000/svg" xmlns:xlink="http://www.w3.org/1999/xlink" x="0px" y="0px"
	 width="35px" height="28px" viewBox="0 0 35 28" enable-background="new 0 0 35 28" xml:space="preserve">
<g>
	<defs>
		<rect id="SVGID_1_" x="0.47" y="0.279" width="34.061" height="27.441"/>
	</defs>
	<clipPath id="SVGID_2_">
		<use xlink:href="#SVGID_1_"  overflow="visible"/>
	</clipPath>
	<path clip-path="url(#SVGID_2_)" d="M0.469,27.721h13.916V14.879H6.719c-0.097-1.433,0.147-2.815,0.733-4.15
		c1.139-2.539,3.369-4.329,6.689-5.371V0.279c-4.46,0.879-7.853,2.734-10.18,5.566c-2.328,2.832-3.492,6.688-3.492,11.572V27.721z
		 M20.614,27.721H34.53V14.879h-7.666c-0.13-1.302,0.13-2.653,0.781-4.054c1.139-2.636,3.353-4.459,6.641-5.468V0.279
		c-4.33,0.879-7.69,2.718-10.083,5.518s-3.589,6.674-3.589,11.621V27.721z"/>
</g>
</svg>
