<?xml version="1.0" encoding="utf-8"?>
<!-- Generator: Adobe Illustrator 16.0.0, SVG Export Plug-In . SVG Version: 6.00 Build 0)  -->
<!DOCTYPE svg PUBLIC "-//W3C//DTD SVG 1.1//EN" "http://www.w3.org/Graphics/SVG/1.1/DTD/svg11.dtd">
<svg version="1.1" id="Layer_1" xmlns="http://www.w3.org/2000/svg" xmlns:xlink="http://www.w3.org/1999/xlink" x="0px" y="0px"
	 width="25.148px" height="25.138px" viewBox="0 0 25.148 25.138" enable-background="new 0 0 25.148 25.138" xml:space="preserve">
<g>
	<defs>
		<rect id="SVGID_1_" x="-3.429" y="-3.423" width="32" height="32.004"/>
	</defs>
	<clipPath id="SVGID_2_">
		<use xlink:href="#SVGID_1_"  overflow="visible"/>
	</clipPath>
	<path clip-path="url(#SVGID_2_)" d="M22.857,22.866h-5.943v-7.709h2.971l0.445-3.453h-3.416V9.502c0-0.999,0.277-1.679,1.709-1.679
		l1.827-0.001V4.737c-0.317-0.042-1.4-0.136-2.662-0.136c-2.633,0-4.437,1.608-4.437,4.56v2.543h-2.979v3.453h2.979v7.709H2.286
		V2.292h20.571V22.866z M22.857,0.006H2.286C1.026,0.006,0,1.031,0,2.292v20.575c0,1.262,1.026,2.287,2.286,2.287h20.571
		c1.26,0,2.285-1.025,2.285-2.287V2.292C25.143,1.031,24.117,0.006,22.857,0.006"/>
</g>
</svg>
