<?xml version="1.0" encoding="utf-8"?>
<!-- Generator: Adobe Illustrator 16.0.0, SVG Export Plug-In . SVG Version: 6.00 Build 0)  -->
<!DOCTYPE svg PUBLIC "-//W3C//DTD SVG 1.1//EN" "http://www.w3.org/Graphics/SVG/1.1/DTD/svg11.dtd">
<svg version="1.1" id="Layer_1" xmlns="http://www.w3.org/2000/svg" xmlns:xlink="http://www.w3.org/1999/xlink" x="0px" y="0px"
	 width="25.148px" height="25.138px" viewBox="0 0 25.148 25.138" enable-background="new 0 0 25.148 25.138" xml:space="preserve">
<g>
	<defs>
		<rect id="SVGID_1_" x="-3.426" y="-3.431" width="32" height="32"/>
	</defs>
	<clipPath id="SVGID_2_">
		<use xlink:href="#SVGID_1_"  overflow="visible"/>
	</clipPath>
	<path clip-path="url(#SVGID_2_)" d="M22.859,17.763c0,2.809-2.283,5.092-5.09,5.092H7.38c-2.807,0-5.092-2.283-5.092-5.09V7.375
		c0-2.807,2.283-5.091,5.09-5.091h10.39c2.807,0,5.091,2.283,5.091,5.09V17.763z M17.769-0.002H7.378
		c-4.067,0-7.376,3.309-7.376,7.377v10.39c0,4.066,3.309,7.375,7.378,7.375H17.77c4.067,0,7.376-3.309,7.376-7.377V7.374
		C25.146,3.306,21.837-0.002,17.769-0.002"/>
	<path clip-path="url(#SVGID_2_)" d="M12.574,17.14c-2.521,0-4.572-2.051-4.572-4.57c0-2.521,2.051-4.572,4.572-4.572
		c2.521,0,4.571,2.051,4.571,4.572C17.146,15.089,15.096,17.14,12.574,17.14 M12.574,5.712c-3.781,0-6.857,3.076-6.857,6.857
		c0,3.781,3.076,6.855,6.857,6.855c3.781,0,6.857-3.074,6.857-6.855C19.432,8.788,16.355,5.712,12.574,5.712"/>
	<path clip-path="url(#SVGID_2_)" d="M19.327,4.777c-0.573,0-1.039,0.465-1.039,1.039c0,0.574,0.466,1.039,1.039,1.039
		c0.574,0,1.039-0.465,1.039-1.039C20.366,5.242,19.901,4.777,19.327,4.777"/>
</g>
</svg>
