<?xml version="1.0" encoding="utf-8"?>
<!-- Generator: Adobe Illustrator 19.1.0, SVG Export Plug-In . SVG Version: 6.00 Build 0)  -->
<svg version="1.1" id="Layer_1" xmlns="http://www.w3.org/2000/svg" xmlns:xlink="http://www.w3.org/1999/xlink" x="0px" y="0px"
	 viewBox="0 0 198.5 201.5" style="enable-background:new 0 0 198.5 201.5;" xml:space="preserve">
<metadata><?xpacket begin="﻿" id="W5M0MpCehiHzreSzNTczkc9d"?>
<x:xmpmeta xmlns:x="adobe:ns:meta/" x:xmptk="Adobe XMP Core 5.6-c067 79.157747, 2015/03/30-23:40:42        ">
   <rdf:RDF xmlns:rdf="http://www.w3.org/1999/02/22-rdf-syntax-ns#">
      <rdf:Description rdf:about=""/>
   </rdf:RDF>
</x:xmpmeta>
                                                                                                    
                                                                                                    
                                                                                                    
                                                                                                    
                                                                                                    
                                                                                                    
                                                                                                    
                                                                                                    
                                                                                                    
                                                                                                    
                                                                                                    
                                                                                                    
                                                                                                    
                                                                                                    
                                                                                                    
                                                                                                    
                                                                                                    
                                                                                                    
                                                                                                    
                                                                                                    
                           
<?xpacket end="w"?></metadata>
<style type="text/css">
	.st0{fill:#00ACC4;}
</style>
<path class="st0" d="M146.1,104.1c-0.4,6.1-2.1,12-4.6,17.2c-7.6,15.6-23.7,26.4-42.2,26.4c-18.5,0-34.6-10.8-42.2-26.4
	c-0.1-0.3-0.2-0.5-0.4-0.8c-1.1-2.4-2.1-4.9-2.8-7.5l0-0.1c-0.1-0.3-0.1-0.6-0.2-0.8c-0.6-2.6-1.1-5.2-1.3-8
	c-0.1-1.1-0.1-2.2-0.1-3.4c0-1.1,0.1-2.3,0.1-3.4c0.4-6.1,2.1-12,4.6-17.2c7.6-15.6,23.7-26.4,42.2-26.4c18.5,0,34.6,10.8,42.2,26.4
	c1.3,2.7,2.3,5.4,3.1,8.3l17.2-4.6c-0.8-2.9-1.7-5.7-2.9-8.4c-9.9-23.2-32.9-39.5-59.7-39.5S49.4,52.2,39.5,75.5L22,70.7
	c12-30.9,42.1-52.9,77.3-52.9c35.1,0,65.2,22,77.3,52.9c1.1,2.7,2,5.6,2.8,8.4l17.2-4.6c-0.8-2.9-1.7-5.7-2.7-8.5
	C179.7,27.6,142.6,0,99.2,0C55.9,0,18.8,27.6,4.6,66.1C2.6,71.6,1,77.4,0,83.3l34.9,9.4c-0.3,2.6-0.5,5.3-0.5,8c0,2.7,0.2,5.4,0.5,8
	c0.1,1.1,0.3,2.2,0.5,3.3c0.3,1.8,0.7,3.7,1.2,5.5l0,0.1c0.3,1,0.6,2,0.9,2.9c0.6,1.9,1.3,3.7,2,5.5c9.9,23.2,32.9,39.6,59.7,39.6
	c26.8,0,49.8-16.3,59.7-39.6l17.6,4.7c-12.1,30.9-42.1,52.9-77.3,52.9c-35.1,0-65.2-22-77.3-52.9c-1.1-2.7-2-5.5-2.8-8.4L2,126.9
	c0.8,2.9,1.7,5.7,2.7,8.5c14.2,38.5,51.2,66.1,94.6,66.1c43.4,0,80.4-27.6,94.6-66.1c2-5.5,3.6-11.3,4.6-17.2L146.1,104.1z"/>
</svg>
