<?xml version="1.0" encoding="UTF-8"?>
<svg width="80px" height="80px" viewBox="0 0 80 80" version="1.1" xmlns="http://www.w3.org/2000/svg" xmlns:xlink="http://www.w3.org/1999/xlink">
    <!-- Generator: Sketch 52.6 (67491) - http://www.bohemiancoding.com/sketch -->
    <title>play-button</title>
    <desc>Created with Sketch.</desc>
    <g id="Vive-Active-v2.0" stroke="none" stroke-width="1" fill="none" fill-rule="evenodd" fill-opacity="0.7">
        <g id="homepage" transform="translate(-660.000000, -1635.000000)" fill="#FFFFFF">
            <g id="The-Workout" transform="translate(0.000000, 1215.000000)">
                <g id="01-Button-/-08-Play" transform="translate(660.000000, 420.000000)">
                    <g id="Button-/-Play">
                        <path d="M0,0 L80,0 L80,80 L0,80 L0,0 Z M61.7111456,41.3944272 C61.904673,41.2976635 62.0615955,41.140741 62.1583592,40.9472136 C62.4053485,40.4532351 62.2051241,39.8525621 61.7111456,39.6055728 L24.9472136,21.2236068 C24.8083582,21.1541791 24.6552451,21.118034 24.5,21.118034 C23.9477153,21.118034 23.5,21.5657492 23.5,22.118034 L23.5,58.881966 C23.5,59.0372111 23.5361451,59.1903242 23.6055728,59.3291796 C23.8525621,59.8231581 24.4532351,60.0233825 24.9472136,59.7763932 L61.7111456,41.3944272 Z" id="Combined-Shape"></path>
                    </g>
                </g>
            </g>
        </g>
    </g>
</svg>