<?xml version="1.0" encoding="utf-8"?>
<!-- Generator: Adobe Illustrator 16.0.0, SVG Export Plug-In . SVG Version: 6.00 Build 0)  -->
<!DOCTYPE svg PUBLIC "-//W3C//DTD SVG 1.1//EN" "http://www.w3.org/Graphics/SVG/1.1/DTD/svg11.dtd">
<svg version="1.1" id="Layer_1" xmlns="http://www.w3.org/2000/svg" xmlns:xlink="http://www.w3.org/1999/xlink" x="0px" y="0px"
	 width="32px" height="25.138px" viewBox="0 0 32 25.138" enable-background="new 0 0 32 25.138" xml:space="preserve">
<g>
	<defs>
		<rect id="SVGID_1_" y="-3.431" width="32" height="32"/>
	</defs>
	<clipPath id="SVGID_2_">
		<use xlink:href="#SVGID_1_"  overflow="visible"/>
	</clipPath>
	<path clip-path="url(#SVGID_2_)" d="M29.714,4.062c-1.009,0.448-2.094,0.75-3.231,0.886c1.162-0.696,2.054-1.799,2.474-3.113
		c-1.087,0.644-2.291,1.113-3.573,1.365c-1.026-1.094-2.489-1.777-4.107-1.777c-3.107,0-5.627,2.52-5.627,5.627
		c0,0.442,0.05,0.871,0.146,1.283c-4.678-0.235-8.824-2.476-11.6-5.88c-0.483,0.831-0.761,1.798-0.761,2.83
		c0,1.951,0.993,3.674,2.503,4.683c-0.923-0.03-1.79-0.282-2.549-0.704v0.071c0,2.727,1.94,5,4.514,5.518
		c-0.472,0.129-0.969,0.197-1.483,0.197c-0.362,0-0.715-0.035-1.058-0.1c0.716,2.234,2.794,3.861,5.257,3.908
		c-1.926,1.51-4.352,2.408-6.989,2.408c-0.453,0-0.901-0.025-1.343-0.078c2.491,1.596,5.448,2.529,8.627,2.529
		c10.352,0,16.01-8.576,16.01-16.013c0-0.243-0.006-0.487-0.016-0.728C28.005,6.181,28.96,5.19,29.714,4.062"/>
</g>
</svg>
