<?xml version="1.0" encoding="utf-8"?>
<!-- Generator: Adobe Illustrator 16.0.0, SVG Export Plug-In . SVG Version: 6.00 Build 0)  -->
<!DOCTYPE svg PUBLIC "-//W3C//DTD SVG 1.1//EN" "http://www.w3.org/Graphics/SVG/1.1/DTD/svg11.dtd">
<svg version="1.1" id="Layer_1" xmlns="http://www.w3.org/2000/svg" xmlns:xlink="http://www.w3.org/1999/xlink" x="0px" y="0px"
	 width="32px" height="25.138px" viewBox="0 0 32 25.138" enable-background="new 0 0 32 25.138" xml:space="preserve">
<path d="M15,10.308l3.983,2.276L15,14.86V10.308z M13,18.308l10.016-5.724L13,6.86V18.308z"/>
<g>
	<defs>
		<rect id="SVGID_1_" x="3" y="2.584" width="26" height="20"/>
	</defs>
	<clipPath id="SVGID_2_">
		<use xlink:href="#SVGID_1_"  overflow="visible"/>
	</clipPath>
	<path clip-path="url(#SVGID_2_)" d="M26.507,18.336c-0.152,0.83-0.822,1.47-1.666,1.592c-2.063,0.299-5.272,0.656-8.841,0.656
		c-3.571,0-6.779-0.357-8.843-0.656c-0.842-0.122-1.512-0.762-1.665-1.591C5.267,17.118,5,15.131,5,12.584
		c0-2.549,0.267-4.537,0.492-5.756C5.645,6,6.314,5.362,7.156,5.239C9.205,4.941,12.402,4.584,16,4.584
		c3.594,0,6.792,0.357,8.842,0.655C25.685,5.362,26.353,6,26.505,6.83C26.731,8.05,27,10.038,27,12.584
		C27,15.122,26.732,17.114,26.507,18.336 M28.473,6.468c-0.309-1.673-1.651-2.962-3.343-3.208C23.016,2.951,19.715,2.584,16,2.584
		c-3.717,0-7.018,0.367-9.132,0.676C5.177,3.506,3.834,4.794,3.525,6.465C3.285,7.767,3,9.884,3,12.584
		c0,2.697,0.285,4.814,0.525,6.116c0.31,1.674,1.654,2.962,3.345,3.206c2.128,0.31,5.439,0.678,9.13,0.678
		c3.688,0,6.999-0.368,9.128-0.678c1.693-0.244,3.037-1.533,3.346-3.207v-0.001C28.714,17.394,29,15.273,29,12.584
		C29,9.886,28.713,7.769,28.473,6.468"/>
</g>
</svg>
